# xmcd
#
# Track frame offsets:
#	187
#	23505
#	39775
#	57235
#	75425
#	102135
#	124325
#	143005
#	164092
#	182570
#	204967
#	230537
#
# Disc length: 3384 seconds
#
# Revision: 1
# Processed by: cddbd v1.5.1PL0 Copyright (c) Steve Scherf et al.
# Submitted via: CDex 1.50Beta5
#
DISCID=8f0d360c
DTITLE=ANN LEWIS - Ann Balance  Pierrot
DYEAR=1900
DGENRE=Rock
TTITLE0=六本木心中
TTITLE1=ラ・セゾン
TTITLE2=ピンクダイヤモンド
TTITLE3=BREAKDOWN
TTITLE4=HEAVEN OR HELL
TTITLE5=Triangle Blue
TTITLE6=眠れない夜のBREAK
TTITLE7=KATANA
TTITLE8=欲望
TTITLE9=愛してくれる女を愛せ
TTITLE10=HOREてしまった
TTITLE11=天使よ故郷を見よ
EXTD=
EXTT0=
EXTT1=
EXTT2=
EXTT3=
EXTT4=
EXTT5=
EXTT6=
EXTT7=
EXTT8=
EXTT9=
EXTT10=
EXTT11=
PLAYORDER=
